<svg width="20" height="20" viewBox="0 0 20 20" fill="none" xmlns="http://www.w3.org/2000/svg">
<path d="M9.91069 0.657715C4.6962 0.657715 0.453857 4.90006 0.453857 10.1145C0.453857 15.329 4.6962 19.5714 9.91069 19.5714C15.1252 19.5714 19.3675 15.329 19.3675 10.1145C19.3675 4.90006 15.1252 0.657715 9.91069 0.657715ZM16.7045 15.608C16.6981 15.6077 16.6919 15.6061 16.6855 15.6061H13.5199L12.0067 13.0386L13.4887 10.4719H16.504L18.085 13.2101C17.7524 14.0849 17.2839 14.8926 16.7045 15.608ZM13.5134 16.3207H16.0609C15.0101 17.362 13.6971 18.1378 12.2311 18.5418L13.5134 16.3207ZM6.30104 16.3207L7.58215 18.5394C6.11952 18.1347 4.80911 17.36 3.7605 16.3207H6.30104ZM6.2877 15.6061H3.12899C3.12471 15.6061 3.12066 15.6073 3.11613 15.6073C2.53703 14.8922 2.06871 14.0846 1.7364 13.2101L3.31718 10.4719H6.31891L7.80084 13.0386L6.2877 15.6061ZM1.1685 10.1145C1.1685 9.36394 1.26378 8.635 1.44268 7.93918L2.69854 10.1145L1.44268 12.2899C1.26378 11.5941 1.1685 10.8652 1.1685 10.1145ZM3.11637 4.62182C3.12066 4.62206 3.12471 4.62301 3.12899 4.62301H6.2877L7.80107 7.19072L6.31915 9.75723H3.31742L1.73664 7.0192C2.06871 6.14448 2.53703 5.3367 3.11637 4.62182ZM6.30104 3.90837H3.7605C4.80935 2.86905 6.11952 2.09438 7.58215 1.68966L6.30104 3.90837ZM8.4209 12.6832L6.93779 10.1145L8.4209 7.54613H11.3867L12.8698 10.1145L11.3867 12.6832H8.4209ZM13.5134 3.90837L12.2311 1.68727C13.6971 2.09152 15.0101 2.86714 16.0609 3.90837H13.5134ZM13.4205 4.62301H16.6855C16.6919 4.62301 16.6981 4.62135 16.7045 4.62111C17.2839 5.33623 17.7524 6.14425 18.085 7.01897L16.504 9.75699H13.4887L12.0036 7.18476L13.4205 4.62301ZM17.1228 10.1145L18.3789 7.93918C18.5578 8.635 18.6531 9.3637 18.6531 10.1145C18.6531 10.8654 18.5578 11.5941 18.3789 12.2899L17.1228 10.1145ZM11.2921 1.48265C11.2973 1.4948 11.3016 1.50695 11.3083 1.51862L12.8469 4.18351L11.3824 6.83149H8.41876L6.91325 4.27713L8.50595 1.51862C8.51238 1.50742 8.51643 1.49551 8.52167 1.48384C8.97427 1.41118 9.43784 1.37235 9.91045 1.37235C10.3807 1.37236 10.8419 1.41071 11.2921 1.48265ZM8.52167 18.7453C8.51643 18.7336 8.51262 18.7219 8.50595 18.7105L6.91325 15.9517L8.41876 13.3976H11.3888L12.8976 15.9577L11.3083 18.7105C11.3016 18.7222 11.2973 18.7345 11.2921 18.7465C10.8419 18.8182 10.3807 18.8567 9.91045 18.8567C9.43784 18.8567 8.97427 18.8177 8.52167 18.7453Z" fill="#4CD83C"/>
</svg>
