<svg width="20" height="20" viewBox="0 0 20 20" fill="none" xmlns="http://www.w3.org/2000/svg">
<path d="M4.70588 2.26761C4.68172 1.49869 4.68984 1 4.68984 1H15.3102C15.3102 1 15.3183 1.49869 15.2941 2.26761C15.2428 3.90137 15.0457 6.7551 14.3155 8.63732C13.319 11.2058 12.0649 12.5015 10.9713 12.9789C10.9713 12.9789 10.5294 15.4507 11.5882 16.4014C12.6471 17.3521 13.0321 17.8908 13.0321 19H6.96791C6.96791 17.8908 7.35294 17.3521 8.41176 16.4014C9.47059 15.4507 9.02872 12.9789 9.02872 12.9789C7.93513 12.5015 6.68095 11.2058 5.68449 8.63732C4.95427 6.7551 4.75722 3.90137 4.70588 2.26761Z" fill="white"/>
<path d="M6.25634 9.92519C6.25634 9.92519 4.24905 8.71502 2.95722 6.92606C1.61197 5.06311 1 2.26761 1 2.26761H4.70588M4.70588 2.26761C4.68172 1.49869 4.68984 1 4.68984 1H15.3102C15.3102 1 15.3183 1.49869 15.2941 2.26761M4.70588 2.26761C4.75722 3.90137 4.95427 6.7551 5.68449 8.63732C6.68095 11.2058 7.93513 12.5015 9.02872 12.9789M9.02872 12.9789C9.37887 13.1317 9.71255 13.2007 10.016 13.2007M9.02872 12.9789C9.02872 12.9789 9.47059 15.4507 8.41176 16.4014C7.35294 17.3521 6.96791 17.8908 6.96791 19H13.0321C13.0321 17.8908 12.6471 17.3521 11.5882 16.4014C10.5294 15.4507 10.9713 12.9789 10.9713 12.9789M13.7437 9.92519C13.7437 9.92519 15.7509 8.71502 17.0428 6.92606C18.388 5.06311 19 2.26761 19 2.26761H15.2941M15.2941 2.26761C15.2428 3.90137 15.0457 6.7551 14.3155 8.63732C13.319 11.2058 12.0649 12.5015 10.9713 12.9789M10.9713 12.9789C10.6211 13.1317 10.2874 13.2007 9.98396 13.2007" stroke="white"/>
</svg>
